<?xml version="1.0" standalone="no"?>
<!DOCTYPE svg PUBLIC "-//W3C//DTD SVG 20010904//EN"
 "http://www.w3.org/TR/2001/REC-SVG-20010904/DTD/svg10.dtd">
<svg version="1.0" xmlns="http://www.w3.org/2000/svg"
 height="40px" viewBox="0 0 2083.000000 857.000000"
 preserveAspectRatio="xMidYMid meet">

<g transform="translate(0.000000,857.000000) scale(0.100000,-0.100000)"
fill="#ffffff" stroke="none">
<path d="M0 4285 l0 -4285 10415 0 10415 0 0 4285 0 4285 -10415 0 -10415 0 0
-4285z m20678 3 l2 -4128 -10265 0 -10265 0 0 4123 c0 2268 3 4127 7 4130 3 4
4621 6 10262 5 l10256 -3 3 -4127z"/>
<path d="M790 4290 l0 -3470 625 0 625 0 2 1653 3 1654 279 -1641 c154 -903
281 -1647 284 -1653 6 -17 672 -19 672 -2 0 25 542 3236 550 3259 5 14 9 -670
9 -1623 l1 -1647 1207 2 1207 3 73 525 c39 289 72 528 73 533 0 4 218 7 485 7
267 0 485 -3 486 -7 0 -5 33 -244 73 -533 l72 -525 1187 -3 1187 -2 0 1124 0
1124 63 10 c112 19 228 35 231 31 1 -2 137 -518 301 -1146 l299 -1143 618 0
617 0 -9 28 c-5 15 -183 618 -395 1341 l-385 1313 105 101 c121 114 198 206
291 344 81 120 201 363 248 499 63 186 104 417 107 603 1 46 104 -550 349
-2014 192 -1144 354 -2110 360 -2147 l12 -68 729 0 729 0 5 22 c3 13 226 1416
496 3118 269 1702 492 3096 495 3099 2 2 4 -1400 4 -3117 l0 -3122 1180 0
1180 0 0 625 0 625 -560 0 -560 0 0 795 0 795 560 0 560 0 0 630 0 630 -557 2
-558 3 -3 783 -2 782 560 0 560 0 0 635 0 635 -1755 0 c-1396 0 -1757 -3
-1760 -12 -2 -7 -130 -938 -285 -2068 -154 -1130 -284 -2071 -288 -2090 -7
-29 -12 -4 -31 135 -13 94 -141 1039 -285 2100 l-261 1930 -633 3 -632 2 0
-25 c0 -14 29 -256 65 -538 36 -282 65 -521 65 -532 -1 -16 -4 -14 -17 10
-114 219 -336 489 -533 648 -221 178 -482 309 -743 372 -231 56 -256 57 -1044
62 l-733 5 0 -864 c0 -476 -3 -1852 -7 -3059 l-6 -2194 -443 2945 c-243 1620
-450 2996 -459 3058 l-17 112 -831 -2 -832 -3 -475 -3168 -475 -3167 -3 3170
-2 3170 -794 0 -794 0 -6 -27 c-3 -16 -130 -804 -281 -1753 -287 -1799 -286
-1791 -291 -1775 -2 6 -125 789 -274 1742 -148 952 -272 1750 -276 1772 l-7
41 -793 0 -794 0 0 -3470z m9223 2215 c210 -37 380 -140 508 -310 55 -72 124
-225 153 -336 41 -154 51 -243 50 -444 0 -214 -19 -342 -75 -503 -108 -307
-324 -528 -591 -602 -40 -11 -94 -20 -120 -20 l-48 0 0 1108 c0 610 3 1112 7
1115 9 10 19 9 116 -8z m-2943 -2045 c93 -778 172 -1427 174 -1442 l6 -28
-350 0 c-193 0 -350 3 -350 8 -1 24 333 2890 338 2902 7 20 -10 157 182 -1440z"/>
<path d="M17740 4290 l0 -3470 1155 0 1155 0 0 625 0 625 -535 0 -535 0 0
2845 0 2845 -620 0 -620 0 0 -3470z"/>
</g>
</svg>

